<svg width="21" height="21" viewBox="0 0 21 21" fill="none" xmlns="http://www.w3.org/2000/svg">
<path d="M8.85955 4.26562V4.59375H12.1408V4.26562C12.1408 3.8305 11.968 3.4132 11.6603 3.10553C11.3526 2.79785 10.9353 2.625 10.5002 2.625C10.0651 2.625 9.64776 2.79785 9.34008 3.10553C9.03241 3.4132 8.85955 3.8305 8.85955 4.26562ZM7.54705 4.59375V4.26562C7.54705 3.48241 7.85819 2.73127 8.41201 2.17745C8.96582 1.62363 9.71696 1.3125 10.5002 1.3125C11.2834 1.3125 12.0345 1.62363 12.5884 2.17745C13.1422 2.73127 13.4533 3.48241 13.4533 4.26562V4.59375H18.3752C18.5492 4.59375 18.7161 4.66289 18.8392 4.78596C18.9623 4.90903 19.0314 5.07595 19.0314 5.25C19.0314 5.42405 18.9623 5.59097 18.8392 5.71404C18.7161 5.83711 18.5492 5.90625 18.3752 5.90625H17.3856L16.1439 16.779C16.0524 17.5797 15.6693 18.3188 15.0678 18.8552C14.4662 19.3916 13.6883 19.6879 12.8824 19.6875H8.11799C7.31203 19.6879 6.53411 19.3916 5.93258 18.8552C5.33105 18.3188 4.94799 17.5797 4.85643 16.779L3.6148 5.90625H2.62518C2.45113 5.90625 2.28421 5.83711 2.16114 5.71404C2.03807 5.59097 1.96893 5.42405 1.96893 5.25C1.96893 5.07595 2.03807 4.90903 2.16114 4.78596C2.28421 4.66289 2.45113 4.59375 2.62518 4.59375H7.54705ZM9.18768 8.85937C9.18768 8.68533 9.11854 8.51841 8.99547 8.39534C8.8724 8.27227 8.70548 8.20312 8.53143 8.20312C8.35738 8.20312 8.19046 8.27227 8.06739 8.39534C7.94432 8.51841 7.87518 8.68533 7.87518 8.85937V15.4219C7.87518 15.5959 7.94432 15.7628 8.06739 15.8859C8.19046 16.009 8.35738 16.0781 8.53143 16.0781C8.70548 16.0781 8.8724 16.009 8.99547 15.8859C9.11854 15.7628 9.18768 15.5959 9.18768 15.4219V8.85937ZM12.4689 8.20312C12.2949 8.20312 12.128 8.27227 12.0049 8.39534C11.8818 8.51841 11.8127 8.68533 11.8127 8.85937V15.4219C11.8127 15.5959 11.8818 15.7628 12.0049 15.8859C12.128 16.009 12.2949 16.0781 12.4689 16.0781C12.643 16.0781 12.8099 16.009 12.933 15.8859C13.056 15.7628 13.1252 15.5959 13.1252 15.4219V8.85937C13.1252 8.68533 13.056 8.51841 12.933 8.39534C12.8099 8.27227 12.643 8.20312 12.4689 8.20312Z" fill="#FFA500"/>
</svg>
