<svg width="22" height="22" viewBox="0 0 22 22" fill="none" xmlns="http://www.w3.org/2000/svg">
<path d="M21 19.4375V8.8125C21 8.61844 20.9548 8.42705 20.868 8.25348C20.7812 8.07991 20.6552 7.92893 20.5 7.8125L11.75 1.25C11.5336 1.08772 11.2705 1 11 1C10.7295 1 10.4664 1.08772 10.25 1.25L1.5 7.8125C1.34476 7.92893 1.21875 8.07991 1.13197 8.25348C1.04518 8.42705 1 8.61844 1 8.8125V19.4375C1 19.769 1.1317 20.087 1.36612 20.3214C1.60054 20.5558 1.91848 20.6875 2.25 20.6875H7.25C7.58152 20.6875 7.89946 20.5558 8.13388 20.3214C8.3683 20.087 8.5 19.769 8.5 19.4375V15.6875C8.5 15.356 8.6317 15.038 8.86612 14.8036C9.10054 14.5692 9.41848 14.4375 9.75 14.4375H12.25C12.5815 14.4375 12.8995 14.5692 13.1339 14.8036C13.3683 15.038 13.5 15.356 13.5 15.6875V19.4375C13.5 19.769 13.6317 20.087 13.8661 20.3214C14.1005 20.5558 14.4185 20.6875 14.75 20.6875H19.75C20.0815 20.6875 20.3995 20.5558 20.6339 20.3214C20.8683 20.087 21 19.769 21 19.4375Z" fill="#FFA500" stroke="#FFA500" stroke-width="2" stroke-linecap="round" stroke-linejoin="round"/>
</svg>
