<svg width="12" height="12" viewBox="0 0 12 12" fill="none" xmlns="http://www.w3.org/2000/svg">
<path d="M3 5.5C3 4.086 3 3.3785 3.4395 2.9395C3.8785 2.5 4.586 2.5 6 2.5H7.5C8.914 2.5 9.6215 2.5 10.0605 2.9395C10.5 3.3785 10.5 4.086 10.5 5.5V8C10.5 9.414 10.5 10.1215 10.0605 10.5605C9.6215 11 8.914 11 7.5 11H6C4.586 11 3.8785 11 3.4395 10.5605C3 10.1215 3 9.414 3 8V5.5Z" stroke="white" stroke-width="0.75"/>
<path d="M3 9.5C2.60218 9.5 2.22064 9.34196 1.93934 9.06066C1.65804 8.77936 1.5 8.39782 1.5 8V5C1.5 3.1145 1.5 2.1715 2.086 1.586C2.6715 1 3.6145 1 5.5 1H7.5C7.89782 1 8.27936 1.15804 8.56066 1.43934C8.84196 1.72064 9 2.10218 9 2.5" stroke="white" stroke-width="0.75"/>
</svg>
