<svg width="21" height="21" viewBox="0 0 21 21" fill="none" xmlns="http://www.w3.org/2000/svg">
<path d="M12.5197 1.73326C11.8596 1.58587 11.186 1.50769 10.5097 1.50001C9.8167 1.50751 9.14245 1.58626 8.48171 1.73326C8.3408 1.76478 8.21329 1.83956 8.117 1.94715C8.02071 2.05474 7.96047 2.18974 7.94471 2.33326L7.78796 3.741C7.76549 3.93956 7.69685 4.13011 7.58754 4.29739C7.47822 4.46466 7.33127 4.60403 7.15844 4.70433C6.98561 4.80463 6.7917 4.86309 6.59223 4.87501C6.39275 4.88693 6.19326 4.852 6.00971 4.773L4.71971 4.20525C4.58878 4.14761 4.44316 4.13209 4.30301 4.16084C4.16287 4.1896 4.03513 4.26121 3.93747 4.36575C3.00451 5.36405 2.30987 6.56075 1.90572 7.866C1.86314 8.00341 1.86438 8.15066 1.90927 8.28734C1.95415 8.42401 2.04046 8.54333 2.15622 8.62874L3.30147 9.47249C3.46256 9.59104 3.59351 9.7458 3.68377 9.92429C3.77403 10.1028 3.82105 10.3 3.82105 10.5C3.82105 10.7 3.77403 10.8972 3.68377 11.0757C3.59351 11.2542 3.46256 11.4089 3.30147 11.5275L2.15622 12.3735C2.04061 12.4588 1.9544 12.578 1.90952 12.7146C1.86464 12.8511 1.86331 12.9982 1.90572 13.1355C2.30903 14.4419 3.00317 15.6399 3.93597 16.6395C4.03354 16.7442 4.16124 16.8159 4.30139 16.8448C4.44154 16.8737 4.5872 16.8583 4.71821 16.8007L6.01421 16.2315C6.19669 16.1518 6.39534 16.1161 6.59415 16.1273C6.79295 16.1385 6.98634 16.1963 7.15871 16.296C7.50821 16.4985 7.74146 16.8547 7.78721 17.2567L7.94321 18.6645C7.95887 18.8061 8.01784 18.9394 8.11207 19.0462C8.20629 19.1531 8.33118 19.2282 8.46971 19.2615C9.80425 19.5797 11.1949 19.5797 12.5294 19.2615C12.668 19.2282 12.7929 19.1531 12.8871 19.0462C12.9813 18.9394 13.0403 18.8061 13.0559 18.6645L13.2119 17.2545C13.2331 17.0558 13.3009 16.8649 13.4097 16.6973C13.5185 16.5298 13.6654 16.3903 13.8383 16.2901C14.0112 16.19 14.2053 16.1321 14.4048 16.1211C14.6043 16.1102 14.8036 16.1464 14.9864 16.227L16.2817 16.7962C16.4127 16.8538 16.5584 16.8692 16.6985 16.8403C16.8387 16.8114 16.9664 16.7397 17.0639 16.635C17.9962 15.6364 18.6903 14.4398 19.0942 13.1347C19.1368 12.9973 19.1355 12.8501 19.0906 12.7134C19.0457 12.5767 18.9594 12.4574 18.8437 12.372L17.6999 11.5275C17.5388 11.409 17.4078 11.2543 17.3175 11.0758C17.2271 10.8974 17.18 10.7002 17.18 10.5002C17.1799 10.3002 17.2269 10.1029 17.317 9.92443C17.4072 9.74591 17.5381 9.5911 17.6992 9.47249L18.8429 8.62724C18.9584 8.54178 19.0445 8.42255 19.0892 8.28604C19.134 8.14952 19.1352 8.00248 19.0927 7.86525C18.6888 6.56005 17.9944 5.36334 17.0617 4.365C16.964 4.26046 16.8363 4.18885 16.6961 4.16009C16.556 4.13134 16.4104 4.14686 16.2794 4.2045L14.9894 4.77225C14.8289 4.84371 14.6551 4.88051 14.4794 4.88025C14.1653 4.87967 13.8623 4.76318 13.6287 4.5531C13.3951 4.34301 13.2472 4.05411 13.2134 3.74175L13.0559 2.33251C13.0402 2.18928 12.9802 2.05454 12.8842 1.9471C12.7882 1.83967 12.6603 1.7649 12.5197 1.73326ZM10.5 13.5C9.7043 13.5 8.94124 13.1839 8.37864 12.6213C7.81603 12.0587 7.49996 11.2956 7.49996 10.5C7.49996 9.70434 7.81603 8.94128 8.37864 8.37867C8.94124 7.81607 9.7043 7.5 10.5 7.5C11.2956 7.5 12.0587 7.81607 12.6213 8.37867C13.1839 8.94128 13.4999 9.70434 13.4999 10.5C13.4999 11.2956 13.1839 12.0587 12.6213 12.6213C12.0587 13.1839 11.2956 13.5 10.5 13.5Z" fill="#FFA500"/>
</svg>
