<svg width="19" height="19" viewBox="0 0 19 19" fill="none" xmlns="http://www.w3.org/2000/svg">
<path d="M10.8696 2.77884L12.2629 5.56551C12.4529 5.95342 12.9596 6.32551 13.3871 6.39676L15.9125 6.81634C17.5275 7.08551 17.9075 8.25717 16.7437 9.41301L14.7804 11.3763C14.4479 11.7088 14.2658 12.3501 14.3687 12.8093L14.9308 15.2397C15.3742 17.1634 14.3529 17.9076 12.6508 16.9022L10.2837 15.5009C9.85624 15.2476 9.15166 15.2476 8.71624 15.5009L6.34916 16.9022C4.65499 17.9076 3.62582 17.1555 4.06916 15.2397L4.63124 12.8093C4.73416 12.3501 4.55207 11.7088 4.21957 11.3763L2.25624 9.41301C1.10041 8.25717 1.47249 7.08551 3.08749 6.81634L5.61291 6.39676C6.03249 6.32551 6.53916 5.95342 6.72916 5.56551L8.12249 2.77884C8.88249 1.26675 10.1175 1.26675 10.8696 2.77884Z" fill="#FFA500"/>
</svg>
