<svg width="21" height="21" viewBox="0 0 21 21" fill="none" xmlns="http://www.w3.org/2000/svg">
<path d="M7.56442 17.9374C7.75345 18.5691 8.14119 19.123 8.67005 19.5167C9.19891 19.9105 9.84068 20.1232 10.5 20.1232C11.1594 20.1232 11.8012 19.9105 12.33 19.5167C12.8589 19.123 13.2466 18.5691 13.4356 17.9374H7.56442ZM2.62506 17.0624H18.375V14.4374L16.625 11.8125V7.43747C16.625 6.63313 16.4666 5.83666 16.1588 5.09355C15.851 4.35043 15.3998 3.67522 14.831 3.10646C14.2623 2.5377 13.5871 2.08654 12.844 1.77873C12.1008 1.47092 11.3044 1.31249 10.5 1.31249C9.69569 1.31249 8.89922 1.47092 8.15611 1.77873C7.41299 2.08654 6.73778 2.5377 6.16902 3.10646C5.60026 3.67522 5.1491 4.35043 4.84129 5.09355C4.53348 5.83666 4.37506 6.63313 4.37506 7.43747V11.8125L2.62506 14.4374V17.0624Z" fill="#FFA500"/>
</svg>
