<svg width="21" height="21" viewBox="0 0 21 21" fill="none" xmlns="http://www.w3.org/2000/svg">
<path fill-rule="evenodd" clip-rule="evenodd" d="M9.62499 1.74999C8.36707 1.75013 7.12749 2.0516 6.01001 2.62918C4.89253 3.20676 3.92968 4.04364 3.20204 5.06975C2.47441 6.09586 2.00318 7.28135 1.82779 8.52698C1.6524 9.77261 1.77796 11.0421 2.19397 12.2293C2.60997 13.4164 3.3043 14.4866 4.21885 15.3503C5.13339 16.214 6.24153 16.846 7.45051 17.1935C8.65948 17.541 9.9341 17.5938 11.1677 17.3475C12.4012 17.1012 13.5579 16.563 14.5407 15.7779L17.7563 18.9936C17.9214 19.1529 18.1424 19.2411 18.3718 19.2391C18.6012 19.2372 18.8207 19.1451 18.9829 18.9829C19.1452 18.8207 19.2372 18.6012 19.2392 18.3718C19.2412 18.1424 19.153 17.9213 18.9936 17.7563L15.778 14.5407C16.7037 13.3821 17.2835 11.9856 17.4505 10.512C17.6176 9.03842 17.3651 7.5476 16.7222 6.21116C16.0793 4.87472 15.0721 3.74698 13.8165 2.95774C12.561 2.16851 11.108 1.74986 9.62499 1.74999ZM4.37501 9.62496C4.37501 8.93553 4.5108 8.25284 4.77464 7.61588C5.03847 6.97893 5.42519 6.40017 5.91269 5.91267C6.4002 5.42516 6.97895 5.03845 7.61591 4.77461C8.25286 4.51078 8.93555 4.37498 9.62499 4.37498C10.3144 4.37498 10.9971 4.51078 11.6341 4.77461C12.271 5.03845 12.8498 5.42516 13.3373 5.91267C13.8248 6.40017 14.2115 6.97893 14.4753 7.61588C14.7392 8.25284 14.875 8.93553 14.875 9.62496C14.875 11.0173 14.3218 12.3527 13.3373 13.3373C12.3527 14.3218 11.0174 14.8749 9.62499 14.8749C8.23261 14.8749 6.89725 14.3218 5.91269 13.3373C4.92813 12.3527 4.37501 11.0173 4.37501 9.62496Z" fill="#FFA500"/>
</svg>
