<svg width="40" height="40" viewBox="0 0 40 40" fill="none" xmlns="http://www.w3.org/2000/svg">
<path d="M30 28.4375V17.8125C30 17.6184 29.9548 17.4271 29.868 17.2535C29.7812 17.0799 29.6552 16.9289 29.5 16.8125L20.75 10.25C20.5336 10.0877 20.2705 10 20 10C19.7295 10 19.4664 10.0877 19.25 10.25L10.5 16.8125C10.3448 16.9289 10.2188 17.0799 10.132 17.2535C10.0452 17.4271 10 17.6184 10 17.8125V28.4375C10 28.769 10.1317 29.087 10.3661 29.3214C10.6005 29.5558 10.9185 29.6875 11.25 29.6875H16.25C16.5815 29.6875 16.8995 29.5558 17.1339 29.3214C17.3683 29.087 17.5 28.769 17.5 28.4375V24.6875C17.5 24.356 17.6317 24.038 17.8661 23.8036C18.1005 23.5692 18.4185 23.4375 18.75 23.4375H21.25C21.5815 23.4375 21.8995 23.5692 22.1339 23.8036C22.3683 24.038 22.5 24.356 22.5 24.6875V28.4375C22.5 28.769 22.6317 29.087 22.8661 29.3214C23.1005 29.5558 23.4185 29.6875 23.75 29.6875H28.75C29.0815 29.6875 29.3995 29.5558 29.6339 29.3214C29.8683 29.087 30 28.769 30 28.4375Z" fill="black" fill-opacity="0.3"/>
</svg>
