<svg width="52" height="52" viewBox="0 0 52 52" fill="none" xmlns="http://www.w3.org/2000/svg">
<path d="M28.0071 37.8882C26.409 44.5365 26.1692 45.3355 25.502 51.8161C24.8388 45.5032 24.6945 39.1465 25.0705 32.81C28.0701 35.5561 31.7677 37.4236 35.7581 38.2078C33.5087 25.9739 32.7456 13.8719 34.16 1.5142C34.6514 15.2983 36.8689 28.8626 40.0092 42.2951C35.7998 41.4732 31.7482 39.9856 28.0071 37.8882Z" fill="#00031D" stroke="#00031D" stroke-width="0.364705" stroke-linecap="round" stroke-linejoin="round"/>
<path d="M14.9105 12.8777C10.6703 22.8422 8.26243 33.4899 7.80269 44.3094L7.75475 44.2614C3.63923 40.1504 1.03282 34.7699 0.35809 28.9922C-0.316645 23.2145 0.979845 17.3782 4.03737 12.4295C7.09489 7.4809 11.7342 3.70999 17.2032 1.72815C22.6722 -0.253684 28.6502 -0.330264 34.1682 1.51083C29.358 7.96827 26.2265 15.519 25.0547 23.4854C21.4211 20.1996 18.0308 16.6544 14.9105 12.8777Z" fill="#646C7B" stroke="#00031D" stroke-width="0.364705" stroke-linecap="round" stroke-linejoin="round"/>
<path d="M25.5016 51.8162C26.1688 45.3357 26.4165 44.5366 28.0067 37.8883C31.751 39.9824 35.8052 41.466 40.0168 42.2832C36.8764 28.8507 34.659 15.2864 34.1675 1.50236C40.0229 3.45488 44.9849 7.44083 48.1538 12.7376C51.3228 18.0343 52.489 24.2912 51.441 30.3739C50.393 36.4566 47.2001 41.9625 42.4413 45.8934C37.6825 49.8242 31.6727 51.9198 25.5016 51.8002V51.8162Z" fill="#646C7B" stroke="#00031D" stroke-width="0.364705" stroke-linecap="round" stroke-linejoin="round"/>
<path d="M35.7586 38.2116C31.7677 37.4262 28.07 35.5574 25.0709 32.8098C24.6951 39.145 24.8394 45.5003 25.5024 51.8119C18.854 51.6913 12.5106 49.0007 7.80287 44.3045C8.26261 33.4851 10.6704 22.8374 14.9107 12.8729C18.03 16.6592 21.4203 20.2138 25.0549 23.5086C26.2267 15.5422 29.3582 7.99142 34.1684 1.53398C32.746 13.8757 33.5092 25.9777 35.7586 38.2116Z" fill="white"/>
</svg>
