<svg width="105" height="19" viewBox="0 0 105 19" fill="none" xmlns="http://www.w3.org/2000/svg">
<path d="M14.9624 1.78006H0.897743C0.448871 1.78006 0.0374059 2.15092 0.0374059 2.63304V4.19066C0.0374059 4.67278 0.448871 5.08073 0.897743 5.08073H14.9624C15.4487 5.08073 15.8227 4.67278 15.8601 4.19066V2.67013C15.8601 2.15092 15.4487 1.78006 14.9624 1.78006ZM14.9624 10.5324H0.897743C0.673307 10.5324 0.448871 10.6437 0.261842 10.792C0.112218 10.9404 0 11.1629 0 11.4225V12.9801C0 13.4622 0.411465 13.8702 0.860337 13.8702H14.925C15.4112 13.8702 15.7853 13.4993 15.8227 12.9801V11.4225C15.8601 10.9033 15.4487 10.5324 14.9624 10.5324ZM8.8278 14.8715H0.897743C0.673307 14.8715 0.448871 14.9457 0.299248 15.1311C0.149624 15.2795 0.0374059 15.502 0.0374059 15.7616V17.3192C0.0374059 17.8013 0.448871 18.2093 0.897743 18.2093H8.7904C9.27668 18.2093 9.65073 17.8013 9.65073 17.3192V15.7245C9.68814 15.2795 9.31408 14.8715 8.8278 14.8715ZM15.8601 6.15624H0.897743C0.673307 6.15624 0.448871 6.23041 0.299248 6.41584C0.149624 6.56418 0.0374059 6.7867 0.0374059 7.04631V8.60393C0.0374059 9.08605 0.448871 9.494 0.897743 9.494H15.8227C16.309 9.494 16.6831 9.08605 16.6831 8.60393V7.04631C16.7205 6.5271 16.3464 6.15624 15.8601 6.15624Z" fill="#00C3F7"/>
<path d="M32.2065 5.30333C31.7576 4.8583 31.2713 4.52452 30.6729 4.26492C30.1118 4.00532 29.4759 3.89406 28.84 3.89406C28.2415 3.89406 27.643 4.00532 27.0819 4.26492C26.7078 4.45035 26.3712 4.67287 26.1093 4.96956V4.70995C26.1093 4.56161 26.0345 4.45035 25.9597 4.33909C25.8475 4.22783 25.7353 4.15366 25.5856 4.15366H23.6031C23.4535 4.15366 23.3039 4.22783 23.2291 4.33909C23.1169 4.45035 23.0794 4.56161 23.0794 4.70995V17.6901C23.0794 17.8385 23.1543 17.9497 23.2291 18.061C23.3413 18.1723 23.4535 18.2093 23.6031 18.2093H25.5856C25.7353 18.2093 25.8475 18.1723 25.9597 18.061C26.0719 17.9497 26.1093 17.8385 26.1093 17.6901V13.2398C26.4086 13.5365 26.7452 13.7961 27.1567 13.9073C27.6804 14.0928 28.2415 14.204 28.7652 14.204C29.4011 14.204 30.037 14.0928 30.598 13.8332C31.1965 13.6107 31.7202 13.2398 32.1317 12.7948C32.5806 12.3126 32.9546 11.7563 33.1791 11.163C33.4409 10.4954 33.5905 9.75368 33.5531 9.04905C33.5531 8.30732 33.4409 7.60268 33.1791 6.89804C33.0294 6.34175 32.6554 5.78546 32.2065 5.30333ZM30.4484 10.0133C30.3362 10.2729 30.1866 10.5325 29.9995 10.755C29.5881 11.2 29.027 11.4226 28.4285 11.4226C28.1292 11.4226 27.83 11.3484 27.5682 11.2371C27.3063 11.1259 27.0445 10.9404 26.8574 10.755C26.6704 10.5325 26.4834 10.2729 26.3712 10.0133C26.1467 9.41991 26.1467 8.78944 26.3712 8.19606C26.4834 7.93646 26.633 7.67685 26.8574 7.45434C27.0819 7.23182 27.3063 7.08347 27.5682 6.93513C27.83 6.82387 28.1292 6.7497 28.4285 6.7497C28.7277 6.7497 29.027 6.82387 29.3262 6.93513C29.5881 7.04639 29.8125 7.23182 30.037 7.41725C30.224 7.63977 30.3736 7.86229 30.4858 8.15898C30.6729 8.75236 30.6729 9.41991 30.4484 10.0133ZM44.3634 4.19075H42.3809C42.2313 4.19075 42.1191 4.26492 42.0069 4.33909C41.8946 4.45035 41.8572 4.5987 41.8572 4.74704V4.96956C41.5954 4.67287 41.2961 4.45035 40.9595 4.30201C40.4358 4.0424 39.8373 3.93114 39.2388 3.93114C37.967 3.93114 36.7326 4.45035 35.8349 5.34042C35.386 5.82254 35.0119 6.37884 34.7501 6.97222C34.4509 7.63977 34.3386 8.38149 34.3386 9.12322C34.3386 9.86494 34.4509 10.6067 34.7501 11.2742C35.0119 11.8676 35.386 12.4239 35.8349 12.906C36.7326 13.7961 37.9296 14.3153 39.2014 14.3153C39.7999 14.3153 40.3984 14.204 40.9221 13.9444C41.2587 13.759 41.5954 13.5365 41.8198 13.2769V13.5365C41.8198 13.6848 41.8946 13.7961 41.9694 13.9073C42.0817 13.9815 42.1939 14.0557 42.3435 14.0557H44.326C44.4756 14.0557 44.5879 13.9815 44.7001 13.9073C44.8123 13.7961 44.8497 13.6848 44.8497 13.5365V4.74704C44.8497 4.5987 44.8123 4.48744 44.7001 4.37618C44.6253 4.22783 44.5131 4.19075 44.3634 4.19075ZM41.6702 9.9762C41.558 10.2358 41.4084 10.4954 41.2213 10.7179C41.0343 10.9034 40.7725 11.0888 40.5106 11.2371C39.9495 11.4967 39.3136 11.4967 38.7525 11.2371C38.4907 11.1259 38.2289 10.9404 38.0418 10.7179C37.8548 10.4954 37.6678 10.2358 37.593 9.9762C37.3685 9.38282 37.3685 8.75236 37.593 8.15898C37.7052 7.89937 37.8548 7.63977 38.0418 7.41725C38.2289 7.19473 38.4907 7.04639 38.7525 6.89804C39.3136 6.63844 39.9495 6.63844 40.5106 6.89804C40.7725 7.0093 40.9969 7.19473 41.2213 7.38016C41.4084 7.60268 41.558 7.8252 41.6702 8.12189C41.932 8.75236 41.932 9.41991 41.6702 9.9762ZM64.0764 8.82653C63.7771 8.56692 63.4779 8.38149 63.1038 8.23315C62.7298 8.0848 62.3557 7.97354 61.9442 7.89937L60.448 7.60268C60.0739 7.52851 59.7747 7.41725 59.6251 7.30599C59.5128 7.23182 59.438 7.08347 59.438 6.93513C59.438 6.78678 59.5128 6.63844 59.7373 6.52718C59.9991 6.37884 60.2984 6.30466 60.5602 6.34175C60.9343 6.34175 61.3457 6.41592 61.6824 6.56427C62.019 6.71261 62.3557 6.89804 62.6549 7.08347C63.1038 7.34308 63.4779 7.30599 63.7397 7.0093L64.4504 6.1934C64.6 6.04506 64.6749 5.85963 64.6749 5.6742C64.6749 5.48877 64.5626 5.26625 64.413 5.15499C64.1138 4.89539 63.6275 4.5987 62.9542 4.33909C62.3183 4.07949 61.4954 3.93114 60.5228 3.93114C59.9243 3.93114 59.3632 4.00532 58.8021 4.19075C58.3158 4.33909 57.867 4.56161 57.4929 4.8583C57.1189 5.1179 56.857 5.48877 56.6326 5.89671C56.4456 6.30466 56.3333 6.71261 56.3333 7.15765C56.3333 7.97354 56.5952 8.6411 57.0815 9.12322C57.5677 9.60534 58.2036 9.93912 59.0266 10.0875L60.5976 10.4212C60.9343 10.4954 61.2709 10.5696 61.6076 10.7179C61.7946 10.7921 61.9068 10.9404 61.9068 11.163C61.9068 11.3484 61.832 11.4967 61.6076 11.6451C61.4205 11.7934 61.0839 11.8676 60.6724 11.8676C60.261 11.8676 59.8121 11.7934 59.438 11.608C59.064 11.4226 58.7273 11.2 58.4281 10.9404C58.2784 10.8292 58.1288 10.755 57.9792 10.6808C57.7922 10.6438 57.5677 10.6808 57.3433 10.8663L56.483 11.5338C56.2585 11.7193 56.1089 12.0159 56.1837 12.2755C56.2211 12.5722 56.483 12.8318 56.8944 13.1656C57.9792 13.9073 59.2884 14.2782 60.5976 14.2411C61.1961 14.2411 61.832 14.1669 62.3931 13.9815C62.9168 13.8332 63.3656 13.6107 63.7771 13.2769C64.1512 12.9802 64.4878 12.6093 64.6749 12.2014C64.8993 11.7934 64.9741 11.3484 64.9741 10.8663C64.9741 10.4583 64.8993 10.0504 64.7123 9.64243C64.5626 9.38282 64.3382 9.08613 64.0764 8.82653ZM72.6797 11.2C72.6049 11.0517 72.4179 10.9404 72.2309 10.9034C72.0438 10.9034 71.8568 10.9775 71.7072 11.0517C71.4827 11.2 71.1835 11.3113 70.8842 11.3113C70.8094 11.3113 70.6972 11.3113 70.585 11.2742C70.4728 11.2742 70.398 11.2 70.3232 11.1259C70.2483 11.0517 70.1735 10.9404 70.0987 10.8292C70.0239 10.6808 69.9865 10.4954 70.0239 10.31V6.7497H72.6049C72.7545 6.7497 72.9042 6.67553 73.0164 6.56427C73.1286 6.45301 73.2034 6.34175 73.2034 6.1934V4.67287C73.2034 4.52452 73.1286 4.37618 73.0164 4.30201C72.9042 4.19075 72.792 4.15366 72.6423 4.15366H70.0613V1.74305C70.0613 1.59471 70.0239 1.44636 69.9117 1.37219C69.7995 1.26093 69.6873 1.22385 69.5376 1.22385H67.5551C67.4055 1.22385 67.2559 1.26093 67.1811 1.37219C67.0688 1.48345 67.0314 1.6318 67.0314 1.74305V4.19075H65.9093C65.7596 4.19075 65.61 4.26492 65.5352 4.37618C65.423 4.48744 65.3856 4.5987 65.3856 4.74704V6.26758C65.3856 6.41592 65.423 6.52718 65.5352 6.63844C65.61 6.7497 65.7596 6.82387 65.9093 6.82387H67.0314V11.0517C67.0314 11.5709 67.1062 12.053 67.3307 12.4981C67.5177 12.8689 67.7795 13.2027 68.0788 13.4623C68.378 13.7219 68.7521 13.9073 69.1636 14.0186C69.575 14.1299 69.9865 14.204 70.398 14.204C70.9591 14.204 71.4827 14.1299 72.0064 13.9444C72.4927 13.7961 72.9416 13.4994 73.2782 13.1656C73.5027 12.9431 73.5401 12.5722 73.353 12.3126L72.6797 11.2ZM83.5275 4.19075H81.5449C81.3953 4.19075 81.2831 4.26492 81.1709 4.33909C81.0587 4.45035 81.0213 4.5987 81.0213 4.74704V4.96956C80.7594 4.67287 80.4602 4.45035 80.1235 4.30201C79.5998 4.0424 79.0013 3.93114 78.4028 3.93114C77.131 3.93114 75.934 4.45035 75.0363 5.34042C74.5874 5.82254 74.2134 6.37884 73.9515 6.97222C73.6523 7.63977 73.5401 8.38149 73.5401 9.08613C73.5401 9.82786 73.6523 10.5325 73.9515 11.2371C74.2134 11.8305 74.5874 12.3868 75.0363 12.8689C75.934 13.759 77.131 14.2782 78.4028 14.2782C79.0013 14.2782 79.5998 14.1669 80.1235 13.9073C80.4602 13.7219 80.7968 13.4994 81.0213 13.2398V13.4994C81.0213 13.6477 81.0587 13.759 81.1709 13.8703C81.2831 13.9815 81.3953 14.0186 81.5449 14.0186H83.5275C83.8267 14.0186 84.0511 13.7961 84.0511 13.4994V4.74704C84.0511 4.5987 84.0137 4.48744 83.9015 4.37618C83.7893 4.22783 83.6771 4.19075 83.5275 4.19075ZM80.8342 9.9762C80.722 10.2358 80.5724 10.4954 80.3854 10.7179C80.1609 10.9034 79.9365 11.0888 79.6746 11.2371C79.4128 11.3484 79.0761 11.4226 78.7769 11.4226C78.4777 11.4226 78.1784 11.3484 77.9166 11.2371C77.6547 11.1259 77.3929 10.9404 77.2059 10.7179C77.0188 10.4954 76.8318 10.2358 76.757 9.9762C76.5325 9.38282 76.5325 8.75236 76.757 8.15898C76.8692 7.89937 77.0188 7.63977 77.2059 7.41725C77.4303 7.19473 77.6547 7.04639 77.9166 6.89804C78.1784 6.78678 78.4777 6.71261 78.7769 6.71261C79.0761 6.71261 79.3754 6.78678 79.6746 6.89804C79.9365 7.0093 80.1609 7.19473 80.3854 7.38016C80.5724 7.60268 80.7594 7.8252 80.8342 8.12189C81.0961 8.75236 81.0961 9.41991 80.8342 9.9762ZM94.3752 11.0517L93.253 10.1987C93.0286 10.0133 92.8415 9.9762 92.6545 10.0504C92.5049 10.1245 92.3553 10.2358 92.243 10.3471C91.9812 10.6438 91.7194 10.9034 91.3827 11.1259C91.0461 11.3113 90.672 11.4226 90.2605 11.3855C89.8117 11.3855 89.4002 11.2742 89.0261 11.0146C88.6521 10.755 88.3902 10.3842 88.2406 9.9762C88.1284 9.67951 88.091 9.38282 88.091 9.08613C88.091 8.78944 88.1284 8.45567 88.2406 8.15898C88.3528 7.89937 88.5024 7.63977 88.6895 7.41725C88.9139 7.19473 89.1383 7.04639 89.4002 6.93513C89.662 6.82387 89.9987 6.7497 90.2979 6.7497C90.672 6.7497 91.0835 6.82387 91.3827 7.0093C91.7194 7.23182 91.9812 7.49142 92.243 7.78811C92.3553 7.89937 92.5049 8.01063 92.6545 8.0848C92.8415 8.15898 93.0286 8.12189 93.253 7.93646L94.3752 7.08347C94.5248 6.97222 94.637 6.86096 94.6744 6.71261C94.7492 6.52718 94.7118 6.34175 94.637 6.1934C94.1881 5.52585 93.5897 4.96956 92.8789 4.56161C92.1308 4.15366 91.2331 3.93114 90.2231 3.93114C89.5124 3.93114 88.8017 4.07949 88.1658 4.33909C87.5299 4.5987 86.9688 4.96956 86.4825 5.45168C85.9962 5.9338 85.6222 6.49009 85.3603 7.08347C84.8367 8.38149 84.8367 9.86494 85.3603 11.163C85.6222 11.7934 85.9962 12.3497 86.4825 12.7948C87.4925 13.759 88.8017 14.2782 90.2231 14.2782C91.2331 14.2782 92.1308 14.0557 92.8789 13.6477C93.5897 13.2398 94.1881 12.6835 94.637 12.0159C94.7492 11.8676 94.7492 11.6822 94.6744 11.4967C94.5996 11.3113 94.4874 11.163 94.3752 11.0517ZM104.886 13.0914L101.782 8.52984L104.437 5.04373C104.55 4.89539 104.587 4.67287 104.55 4.48744C104.512 4.33909 104.363 4.19075 104.063 4.19075H101.969C101.856 4.19075 101.744 4.22783 101.632 4.26492C101.482 4.33909 101.407 4.41326 101.333 4.56161L99.2005 7.52851H98.6769V0.519208C98.6769 0.370863 98.6395 0.259604 98.5272 0.148345C98.415 0.0370863 98.3028 0 98.1532 0H96.1707C96.021 0 95.9088 0.0370863 95.7966 0.148345C95.6844 0.259604 95.647 0.370863 95.647 0.519208V13.4252C95.647 13.5736 95.7218 13.7219 95.7966 13.7961C95.9088 13.9073 96.021 13.9444 96.1707 13.9444H98.1532C98.3028 13.9444 98.415 13.8703 98.5272 13.7961C98.6395 13.6848 98.6769 13.5736 98.6769 13.4252V10.0133H99.238L101.557 13.5736C101.707 13.8332 101.969 13.9815 102.23 13.9815H104.437C104.774 13.9815 104.924 13.8332 104.961 13.6848C105.036 13.4994 104.998 13.2769 104.886 13.0914ZM55.5852 4.19075H53.3783C53.2286 4.19075 53.0416 4.22783 52.9294 4.37618C52.8172 4.48744 52.7424 4.5987 52.7424 4.74704L51.0965 10.755H50.685L48.927 4.70995C48.8895 4.5987 48.8521 4.45035 48.7399 4.33909C48.6277 4.22783 48.4781 4.15366 48.3285 4.15366H46.0467C45.7474 4.15366 45.5604 4.26492 45.4856 4.45035C45.4108 4.63578 45.4108 4.82121 45.4856 4.96956L48.2911 13.4623C48.3285 13.5736 48.4033 13.7219 48.5155 13.7961C48.6277 13.9073 48.7773 13.9444 48.927 13.9444H50.1239L50.0117 14.204L49.7499 14.9828C49.6751 15.2054 49.5254 15.4279 49.301 15.6133C49.114 15.7617 48.8895 15.8358 48.6277 15.8358C48.4407 15.8358 48.2162 15.7987 48.0292 15.7246C47.8422 15.6504 47.6552 15.5391 47.5055 15.4279C47.3559 15.3166 47.1689 15.2795 47.0193 15.2795H46.9818C46.7574 15.2795 46.5704 15.3908 46.4956 15.5762L45.7849 16.6146C45.4856 17.0597 45.6726 17.3564 45.8597 17.5047C46.2337 17.8385 46.6826 18.0981 47.1689 18.2835C47.6926 18.469 48.2536 18.5431 48.8521 18.5431C49.8621 18.5431 50.7224 18.2835 51.3583 17.7272C52.0316 17.1338 52.5179 16.355 52.7798 15.5021L56.0341 5.00664C56.1089 4.82121 56.1089 4.63578 56.0341 4.45035C56.0341 4.30201 55.8845 4.19075 55.5852 4.19075Z" fill="#011B33"/>
</svg>
