<svg width="257" height="50" viewBox="0 0 257 50" fill="none" xmlns="http://www.w3.org/2000/svg">
<path d="M62.3017 35.1171H28.5898L29.8709 29.1275H62.4666L64.2853 20.4923H31.6874L32.9278 14.6248H66.6396L68.4991 5.98958H13.468L5.45403 43.7523H60.4851L62.3017 35.1171Z" fill="black"/>
<path d="M0.743344 46.1066L0 49.742H58.495L59.2405 46.1066H0.743344Z" fill="black"/>
<path d="M69.0325 0H10.5354L9.75132 3.63532H68.2463L69.0325 0Z" fill="black"/>
<path d="M64.1611 46.1066H59.234L58.4907 49.7484H102.286C102.429 48.5214 102.65 47.305 102.95 46.1066H64.1611Z" fill="black"/>
<path d="M126.784 24.6953L130.756 5.99816H109.437L104.769 27.9772L93.2822 5.99816H71.9652L63.9491 43.7523H85.2597L89.9276 21.7305L101.414 43.7523H103.651C105.384 38.7571 108.459 34.336 112.54 30.9742C116.621 27.6124 121.55 25.44 126.784 24.6953Z" fill="black"/>
<path d="M73.2098 3.63532H130.501L131.287 0H73.9938H69.0325L68.2463 3.63532H73.2098Z" fill="black"/>
<path d="M179.247 49.7419L179.99 46.1002H158.712C159.011 47.2985 159.233 48.515 159.376 49.7419H179.247Z" fill="black"/>
<path d="M150.055 31.7796L150.62 29.1339H183.218L185.037 20.4987H152.439L153.679 14.6312H187.391L189.251 5.99816H134.22L130.308 24.4211C130.482 24.4211 130.655 24.4082 130.831 24.4082C137.931 24.3986 144.781 27.0254 150.055 31.7796Z" fill="black"/>
<path d="M181.23 43.7523L183.049 35.1171H153.215C155.297 37.6974 156.917 40.619 158.002 43.7523H181.23Z" fill="black"/>
<path d="M135.464 3.63532H188.998L189.782 0H136.251H131.287L130.501 3.63532H135.464Z" fill="black"/>
<path d="M251.505 5.99816H192.715L184.701 43.7523H206.018L209.158 28.9604H221.056L222.172 43.7523H243.491L241.88 27.3088L248.324 20.8629L251.505 5.99816ZM227.337 19.3012L225.518 20.8693H210.853L212.292 14.0871H228.447L227.337 19.3012Z" fill="black"/>
<path d="M193.959 3.63532H256.216L257 0H194.745H189.782L188.998 3.63532H193.959Z" fill="black"/>
<path d="M184.169 49.742H246.424L247.167 46.1066H184.913H179.99L179.247 49.742H184.169Z" fill="black"/>
</svg>
