<svg width="98" height="18" viewBox="0 0 98 18" fill="none" xmlns="http://www.w3.org/2000/svg">
<path d="M13.9649 1.66134H0.837893C0.418946 1.66134 0.0349122 2.00748 0.0349122 2.45746V3.91124C0.0349122 4.36122 0.418946 4.74197 0.837893 4.74197H13.9649C14.4187 4.74197 14.7679 4.36122 14.8028 3.91124V2.49208C14.8028 2.00748 14.4187 1.66134 13.9649 1.66134ZM13.9649 9.8302H0.837893C0.62842 9.8302 0.418946 9.93405 0.244385 10.0725C0.104737 10.211 0 10.4186 0 10.6609V12.1147C0 12.5647 0.384034 12.9454 0.802981 12.9454H13.93C14.3838 12.9454 14.7329 12.5993 14.7679 12.1147V10.6609C14.8028 10.1763 14.4187 9.8302 13.9649 9.8302ZM8.23928 13.88H0.837893C0.62842 13.88 0.418946 13.9492 0.279298 14.1223C0.139649 14.2608 0.0349122 14.4685 0.0349122 14.7108V16.1645C0.0349122 16.6145 0.418946 16.9953 0.837893 16.9953H8.20437C8.65823 16.9953 9.00735 16.6145 9.00735 16.1645V14.6761C9.04226 14.2608 8.69314 13.88 8.23928 13.88ZM14.8028 5.74578H0.837893C0.62842 5.74578 0.418946 5.815 0.279298 5.98807C0.139649 6.12653 0.0349122 6.33421 0.0349122 6.57651V8.03029C0.0349122 8.48027 0.418946 8.86102 0.837893 8.86102H14.7679C15.2217 8.86102 15.5708 8.48027 15.5708 8.03029V6.57651C15.6058 6.09191 15.2566 5.74578 14.8028 5.74578Z" fill="#00C3F7"/>
<path d="M30.0595 4.94978C29.6405 4.53441 29.1866 4.22289 28.6281 3.98059C28.1044 3.73829 27.5109 3.63445 26.9174 3.63445C26.3588 3.63445 25.8002 3.73829 25.2765 3.98059C24.9274 4.15366 24.6131 4.36134 24.3688 4.63825V4.39595C24.3688 4.2575 24.2989 4.15366 24.2291 4.04982C24.1244 3.94597 24.0196 3.87675 23.88 3.87675H22.0296C21.89 3.87675 21.7503 3.94597 21.6805 4.04982C21.5758 4.15366 21.5409 4.2575 21.5409 4.39595V16.5108C21.5409 16.6492 21.6107 16.7531 21.6805 16.8569C21.7853 16.9608 21.89 16.9954 22.0296 16.9954H23.88C24.0196 16.9954 24.1244 16.9608 24.2291 16.8569C24.3339 16.7531 24.3688 16.6492 24.3688 16.5108V12.3571C24.6481 12.634 24.9623 12.8763 25.3463 12.9802C25.8351 13.1533 26.3588 13.2571 26.8475 13.2571C27.441 13.2571 28.0345 13.1532 28.5582 12.911C29.1168 12.7033 29.6056 12.3571 29.9896 11.9418C30.4086 11.4918 30.7577 10.9726 30.9672 10.4188C31.2116 9.79571 31.3512 9.10343 31.3163 8.44577C31.3163 7.75349 31.2116 7.09583 30.9672 6.43817C30.8275 5.91896 30.4784 5.39976 30.0595 4.94978ZM28.4186 9.34573C28.3138 9.58803 28.1742 9.83032 27.9996 10.038C27.6156 10.4534 27.0919 10.6611 26.5333 10.6611C26.254 10.6611 25.9747 10.5918 25.7303 10.488C25.486 10.3841 25.2416 10.2111 25.067 10.038C24.8924 9.83032 24.7179 9.58803 24.6132 9.34573C24.4037 8.79191 24.4037 8.20347 24.6132 7.64965C24.7179 7.40736 24.8575 7.16506 25.067 6.95738C25.2765 6.74969 25.486 6.61124 25.7303 6.47278C25.9747 6.36894 26.254 6.29971 26.5333 6.29971C26.8126 6.29971 27.0919 6.36894 27.3712 6.47278C27.6156 6.57663 27.8251 6.74969 28.0345 6.92276C28.2091 7.13045 28.3488 7.33813 28.4535 7.61504C28.6281 8.16886 28.6281 8.79191 28.4186 9.34573ZM41.4059 3.91136H39.5556C39.4159 3.91136 39.3112 3.98059 39.2064 4.04982C39.1017 4.15366 39.0668 4.29211 39.0668 4.43057V4.63825C38.8224 4.36134 38.5431 4.15366 38.2289 4.0152C37.7401 3.77291 37.1815 3.66906 36.6229 3.66906C35.4359 3.66906 34.2838 4.15366 33.4459 4.98439C33.027 5.43437 32.6779 5.95358 32.4335 6.5074C32.1542 7.13045 32.0494 7.82272 32.0494 8.515C32.0494 9.20728 32.1542 9.89955 32.4335 10.5226C32.6779 11.0764 33.027 11.5956 33.4459 12.0456C34.2838 12.8763 35.401 13.3609 36.588 13.3609C37.1466 13.3609 37.7052 13.2571 38.194 13.0148C38.5082 12.8417 38.8224 12.634 39.0319 12.3917V12.634C39.0319 12.7725 39.1017 12.8763 39.1715 12.9802C39.2763 13.0494 39.381 13.1186 39.5207 13.1186H41.371C41.5107 13.1186 41.6154 13.0494 41.7201 12.9802C41.8249 12.8763 41.8598 12.7725 41.8598 12.634V4.43057C41.8598 4.29211 41.8249 4.18827 41.7201 4.08443C41.6503 3.94597 41.5456 3.91136 41.4059 3.91136ZM38.8922 9.31112C38.7875 9.55341 38.6479 9.79571 38.4733 10.0034C38.2987 10.1765 38.0543 10.3495 37.81 10.488C37.2863 10.7303 36.6928 10.7303 36.1691 10.488C35.9247 10.3841 35.6803 10.2111 35.5058 10.0034C35.3312 9.79571 35.1566 9.55341 35.0868 9.31112C34.8773 8.75729 34.8773 8.16886 35.0868 7.61504C35.1915 7.37274 35.3312 7.13045 35.5058 6.92276C35.6803 6.71508 35.9247 6.57663 36.1691 6.43817C36.6928 6.19587 37.2863 6.19587 37.81 6.43817C38.0543 6.54201 38.2638 6.71508 38.4733 6.88815C38.6479 7.09583 38.7875 7.30351 38.8922 7.58043C39.1366 8.16886 39.1366 8.79191 38.8922 9.31112ZM59.8046 8.23809C59.5253 7.99579 59.2461 7.82272 58.8969 7.68427C58.5478 7.54581 58.1987 7.44197 57.8147 7.37274L56.4182 7.09583C56.069 7.0266 55.7897 6.92276 55.6501 6.81892C55.5454 6.74969 55.4755 6.61124 55.4755 6.47278C55.4755 6.33433 55.5454 6.19587 55.7548 6.09203C55.9992 5.95358 56.2785 5.88435 56.5229 5.91896C56.872 5.91896 57.2561 5.98819 57.5703 6.12665C57.8845 6.2651 58.1987 6.43817 58.478 6.61124C58.8969 6.85354 59.246 6.81892 59.4904 6.54201L60.1538 5.78051C60.2934 5.64205 60.3632 5.46898 60.3632 5.29591C60.3632 5.12284 60.2585 4.91516 60.1189 4.81132C59.8396 4.56902 59.3857 4.29211 58.7573 4.04982C58.1638 3.80752 57.3957 3.66906 56.488 3.66906C55.9294 3.66906 55.4057 3.73829 54.882 3.91136C54.4282 4.04982 54.0092 4.2575 53.6601 4.53441C53.311 4.77671 53.0666 5.12284 52.8571 5.5036C52.6826 5.88435 52.5778 6.2651 52.5778 6.68047C52.5778 7.44197 52.8222 8.06502 53.2761 8.515C53.7299 8.96498 54.3234 9.2765 55.0915 9.41496L56.5578 9.72648C56.872 9.79571 57.1862 9.86494 57.5004 10.0034C57.675 10.0726 57.7797 10.2111 57.7797 10.4188C57.7797 10.5918 57.7099 10.7303 57.5004 10.8687C57.3259 11.0072 57.0117 11.0764 56.6276 11.0764C56.2436 11.0764 55.8247 11.0072 55.4755 10.8341C55.1264 10.6611 54.8122 10.4534 54.5329 10.2111C54.3933 10.1072 54.2536 10.038 54.114 9.96878C53.9394 9.93416 53.7299 9.96878 53.5204 10.1418L52.7175 10.7649C52.508 10.938 52.3683 11.2149 52.4382 11.4572C52.4731 11.7341 52.7175 11.9764 53.1015 12.2879C54.114 12.9802 55.3359 13.3263 56.5578 13.2917C57.1164 13.2917 57.7099 13.2225 58.2336 13.0494C58.7224 12.911 59.1413 12.7033 59.5253 12.3917C59.8745 12.1148 60.1887 11.7687 60.3632 11.3879C60.5727 11.0072 60.6425 10.5918 60.6425 10.1418C60.6425 9.7611 60.5727 9.38034 60.3982 8.99959C60.2585 8.7573 60.049 8.48038 59.8046 8.23809ZM67.8345 10.4534C67.7646 10.3149 67.5901 10.2111 67.4155 10.1765C67.2409 10.1765 67.0664 10.2457 66.9267 10.3149C66.7173 10.4534 66.438 10.5572 66.1587 10.5572C66.0888 10.5572 65.9841 10.5572 65.8794 10.5226C65.7746 10.5226 65.7048 10.4534 65.635 10.3841C65.5652 10.3149 65.4953 10.2111 65.4255 10.1072C65.3557 9.96878 65.3208 9.79571 65.3557 9.62264V6.29971H67.7646C67.9043 6.29971 68.0439 6.23049 68.1487 6.12665C68.2534 6.0228 68.3232 5.91896 68.3232 5.78051V4.36134C68.3232 4.22289 68.2534 4.08443 68.1487 4.0152C68.0439 3.91136 67.9392 3.87675 67.7995 3.87675H65.3906V1.62685C65.3906 1.48839 65.3557 1.34994 65.2509 1.28071C65.1462 1.17687 65.0415 1.14226 64.9018 1.14226H63.0515C62.9118 1.14226 62.7722 1.17687 62.7024 1.28071C62.5976 1.38455 62.5627 1.52301 62.5627 1.62685V3.91136H61.5153C61.3757 3.91136 61.236 3.98059 61.1662 4.08443C61.0615 4.18827 61.0266 4.29211 61.0266 4.43057V5.84973C61.0266 5.98819 61.0615 6.09203 61.1662 6.19587C61.236 6.29971 61.3757 6.36894 61.5153 6.36894H62.5627V10.3149C62.5627 10.7995 62.6325 11.2495 62.842 11.6649C63.0166 12.011 63.261 12.3225 63.5402 12.5648C63.8195 12.8071 64.1687 12.9802 64.5527 13.084C64.9367 13.1879 65.3208 13.2571 65.7048 13.2571C66.2285 13.2571 66.7173 13.1879 67.206 13.0148C67.6599 12.8763 68.0788 12.5994 68.3931 12.2879C68.6025 12.0802 68.6374 11.7341 68.4629 11.4918L67.8345 10.4534ZM77.959 3.91136H76.1086C75.969 3.91136 75.8643 3.98059 75.7595 4.04982C75.6548 4.15366 75.6199 4.29211 75.6199 4.43057V4.63825C75.3755 4.36134 75.0962 4.15366 74.782 4.0152C74.2932 3.77291 73.7346 3.66906 73.176 3.66906C71.989 3.66906 70.8718 4.15366 70.0339 4.98439C69.615 5.43437 69.2659 5.95358 69.0215 6.5074C68.7422 7.13045 68.6374 7.82272 68.6374 8.48038C68.6374 9.17266 68.7422 9.83032 69.0215 10.488C69.2659 11.0418 69.615 11.561 70.0339 12.011C70.8718 12.8417 71.989 13.3263 73.176 13.3263C73.7346 13.3263 74.2932 13.2225 74.782 12.9802C75.0962 12.8071 75.4104 12.5994 75.6199 12.3571V12.5994C75.6199 12.7379 75.6548 12.8417 75.7595 12.9456C75.8643 13.0494 75.969 13.084 76.1086 13.084H77.959C78.2383 13.084 78.4478 12.8763 78.4478 12.5994V4.43057C78.4478 4.29211 78.4128 4.18827 78.3081 4.08443C78.2034 3.94597 78.0986 3.91136 77.959 3.91136ZM75.4453 9.31112C75.3406 9.55341 75.2009 9.79571 75.0264 10.0034C74.8169 10.1765 74.6074 10.3495 74.363 10.488C74.1186 10.5918 73.8044 10.6611 73.5251 10.6611C73.2458 10.6611 72.9665 10.5918 72.7222 10.488C72.4778 10.3841 72.2334 10.2111 72.0588 10.0034C71.8843 9.79571 71.7097 9.55341 71.6399 9.31112C71.4304 8.75729 71.4304 8.16886 71.6399 7.61504C71.7446 7.37274 71.8843 7.13045 72.0588 6.92276C72.2683 6.71508 72.4778 6.57663 72.7222 6.43817C72.9665 6.33433 73.2458 6.2651 73.5251 6.2651C73.8044 6.2651 74.0837 6.33433 74.363 6.43817C74.6074 6.54201 74.8169 6.71508 75.0264 6.88815C75.2009 7.09583 75.3755 7.30351 75.4453 7.58043C75.6897 8.16886 75.6897 8.79191 75.4453 9.31112ZM88.0835 10.3149L87.0362 9.5188C86.8267 9.34573 86.6521 9.31112 86.4776 9.38034C86.3379 9.44957 86.1983 9.55341 86.0935 9.65725C85.8491 9.93416 85.6048 10.1765 85.2906 10.3841C84.9763 10.5572 84.6272 10.6611 84.2432 10.6264C83.8242 10.6264 83.4402 10.5226 83.0911 10.2803C82.742 10.038 82.4976 9.69187 82.3579 9.31112C82.2532 9.03421 82.2183 8.7573 82.2183 8.48038C82.2183 8.20347 82.2532 7.89195 82.3579 7.61504C82.4627 7.37274 82.6023 7.13045 82.7769 6.92276C82.9863 6.71508 83.1958 6.57663 83.4402 6.47278C83.6846 6.36894 83.9988 6.29971 84.2781 6.29971C84.6272 6.29971 85.0113 6.36894 85.2906 6.54201C85.6048 6.74969 85.8491 6.99199 86.0935 7.2689C86.1983 7.37274 86.3379 7.47658 86.4776 7.54581C86.6521 7.61504 86.8267 7.58043 87.0362 7.40736L88.0835 6.61124C88.2232 6.5074 88.3279 6.40356 88.3628 6.2651C88.4326 6.09203 88.3977 5.91896 88.3279 5.78051C87.909 5.15746 87.3504 4.63825 86.687 4.2575C85.9888 3.87675 85.1509 3.66906 84.2083 3.66906C83.5449 3.66906 82.8816 3.80752 82.2881 4.04982C81.6946 4.29211 81.1709 4.63825 80.7171 5.08823C80.2632 5.53821 79.9141 6.05742 79.6697 6.61124C79.1809 7.82272 79.1809 9.20728 79.6697 10.4188C79.9141 11.0072 80.2632 11.5264 80.7171 11.9418C81.6597 12.8417 82.8816 13.3263 84.2083 13.3263C85.1509 13.3263 85.9888 13.1186 86.687 12.7379C87.3504 12.3571 87.909 11.8379 88.3279 11.2149C88.4326 11.0764 88.4326 10.9034 88.3628 10.7303C88.293 10.5572 88.1883 10.4188 88.0835 10.3149ZM97.8938 12.2187L94.9961 7.96118L97.4749 4.70748C97.5796 4.56902 97.6146 4.36134 97.5796 4.18827C97.5447 4.04982 97.4051 3.91136 97.1258 3.91136H95.1707C95.066 3.91136 94.9612 3.94597 94.8565 3.98059C94.7168 4.04982 94.647 4.11904 94.5772 4.2575L92.5872 7.0266H92.0984V0.484593C92.0984 0.346138 92.0635 0.242297 91.9588 0.138455C91.854 0.0346138 91.7493 0 91.6097 0H89.7593C89.6197 0 89.5149 0.0346138 89.4102 0.138455C89.3054 0.242297 89.2705 0.346138 89.2705 0.484593V12.5302C89.2705 12.6687 89.3404 12.8071 89.4102 12.8763C89.5149 12.9802 89.6197 13.0148 89.7593 13.0148H91.6097C91.7493 13.0148 91.854 12.9456 91.9588 12.8763C92.0635 12.7725 92.0984 12.6687 92.0984 12.5302V9.34573H92.6221L94.7867 12.6687C94.9263 12.911 95.1707 13.0494 95.4151 13.0494H97.4749C97.7891 13.0494 97.9288 12.911 97.9637 12.7725C98.0335 12.5994 97.9986 12.3917 97.8938 12.2187ZM51.8796 3.91136H49.8198C49.6801 3.91136 49.5055 3.94597 49.4008 4.08443C49.2961 4.18827 49.2262 4.29211 49.2262 4.43057L47.6901 10.038H47.3061L45.6652 4.39595C45.6303 4.29211 45.5954 4.15366 45.4906 4.04982C45.3859 3.94597 45.2463 3.87675 45.1066 3.87675H42.977C42.6977 3.87675 42.5231 3.98059 42.4533 4.15366C42.3835 4.32673 42.3835 4.4998 42.4533 4.63825L45.0717 12.5648C45.1066 12.6687 45.1764 12.8071 45.2812 12.8763C45.3859 12.9802 45.5256 13.0148 45.6652 13.0148H46.7824L46.6777 13.2571L46.4333 13.984C46.3634 14.1917 46.2238 14.3993 46.0143 14.5724C45.8398 14.7109 45.6303 14.7801 45.3859 14.7801C45.2113 14.7801 45.0019 14.7455 44.8273 14.6763C44.6528 14.607 44.4782 14.5032 44.3385 14.3993C44.1989 14.2955 44.0243 14.2609 43.8847 14.2609H43.8498C43.6403 14.2609 43.4657 14.3647 43.3959 14.5378L42.7326 15.507C42.4533 15.9224 42.6278 16.1993 42.8024 16.3377C43.1515 16.6492 43.5705 16.8915 44.0243 17.0646C44.5131 17.2377 45.0368 17.3069 45.5954 17.3069C46.538 17.3069 47.341 17.0646 47.9345 16.5454C48.5629 15.9916 49.0168 15.2647 49.2612 14.4686L52.2985 4.67287C52.3683 4.4998 52.3683 4.32673 52.2985 4.15366C52.2985 4.0152 52.1589 3.91136 51.8796 3.91136Z" fill="#011B33"/>
</svg>
