<svg width="22" height="22" viewBox="0 0 22 22" fill="none" xmlns="http://www.w3.org/2000/svg">
<mask id="mask0_0_25" style="mask-type:luminance" maskUnits="userSpaceOnUse" x="1" y="3" width="20" height="16">
<path d="M12.8333 3.66669H9.16668C5.70993 3.66669 3.98109 3.66669 2.90768 4.74102C2.13401 5.51377 1.91768 6.6266 1.85718 8.47919H20.1428C20.0823 6.6266 19.866 5.51377 19.0923 4.74102C18.0189 3.66669 16.2901 3.66669 12.8333 3.66669ZM9.16668 18.3334H12.8333C16.2901 18.3334 18.0189 18.3334 19.0923 17.259C20.1667 16.1856 20.1667 14.4568 20.1667 11C20.1667 10.5949 20.1667 10.2135 20.1648 9.85419H1.83518C1.83334 10.2135 1.83334 10.5949 1.83334 11C1.83334 14.4568 1.83334 16.1856 2.90768 17.259C3.98109 18.3334 5.70993 18.3334 9.16668 18.3334Z" fill="white"/>
<path fill-rule="evenodd" clip-rule="evenodd" d="M4.81247 14.6667C4.81247 14.4844 4.8849 14.3095 5.01383 14.1806C5.14276 14.0516 5.31763 13.9792 5.49997 13.9792H9.16664C9.34897 13.9792 9.52384 14.0516 9.65277 14.1806C9.7817 14.3095 9.85414 14.4844 9.85414 14.6667C9.85414 14.849 9.7817 15.0239 9.65277 15.1528C9.52384 15.2818 9.34897 15.3542 9.16664 15.3542H5.49997C5.31763 15.3542 5.14276 15.2818 5.01383 15.1528C4.8849 15.0239 4.81247 14.849 4.81247 14.6667ZM10.7708 14.6667C10.7708 14.4844 10.8432 14.3095 10.9722 14.1806C11.1011 14.0516 11.276 13.9792 11.4583 13.9792H12.8333C13.0156 13.9792 13.1905 14.0516 13.3194 14.1806C13.4484 14.3095 13.5208 14.4844 13.5208 14.6667C13.5208 14.849 13.4484 15.0239 13.3194 15.1528C13.1905 15.2818 13.0156 15.3542 12.8333 15.3542H11.4583C11.276 15.3542 11.1011 15.2818 10.9722 15.1528C10.8432 15.0239 10.7708 14.849 10.7708 14.6667Z" fill="black"/>
</mask>
<g mask="url(#mask0_0_25)">
<path d="M-3.05176e-05 0H22V22H-3.05176e-05V0Z" fill="#FFA500"/>
</g>
</svg>
