<svg width="262" height="50" viewBox="0 0 262 50" fill="none" xmlns="http://www.w3.org/2000/svg">
<path d="M9.14161 26.434L6.37037 39.3829L9.8859 43.8078H64.3261L72.3503 5.99932H35.4512L33.7138 14.1071H49.2688L44.6765 35.7H28.5017L30.4879 26.434H9.14161Z" fill="black"/>
<path d="M0.744288 46.1673L0 49.8072H62.3336L63.0778 46.1673H0.744288Z" fill="black"/>
<path d="M10.5487 0L9.7637 3.64208H72.0973L72.8823 0H10.5487Z" fill="black"/>
<path d="M111.461 14.8085L107.01 35.7H90.8353L97.165 5.99932H75.8187L67.7946 43.8078H126.66L131.192 22.453H130.997C123.753 22.4632 116.774 19.7322 111.461 14.8085Z" fill="black"/>
<path d="M68.0069 46.1673H63.0778L62.3336 49.8072H67.2626H124.667L125.411 46.1673H68.0069Z" fill="black"/>
<path d="M77.8607 0.0021404H72.8823L72.0973 3.64851H103.982C103.543 2.45824 103.185 1.24009 102.909 0.0021404H77.8607Z" fill="black"/>
<path d="M130.34 46.1673H125.411L124.667 49.8072H129.596H187.001L187.745 46.1673H130.34Z" fill="black"/>
<path d="M159.08 0.0021404C158.803 1.23983 158.445 2.45793 158.008 3.64851H196.764L197.549 0.0021404H159.08Z" fill="black"/>
<path d="M134.712 22.2106L133.273 28.9993H170.791L169.344 35.7H153.169L154.08 31.3566H132.734L130.128 43.8078H188.993L193.832 20.8915H156.313L157.761 14.1071H173.936L173.024 18.4098H194.371L197.017 5.99932H157.008C154.943 10.3495 151.82 14.1126 147.925 16.9445C144.03 19.7765 139.487 21.587 134.712 22.2106Z" fill="black"/>
<path d="M198.626 14.6455H215.959L209.795 43.8078H231.141L237.303 14.6455H254.636L256.498 5.99932H200.488L198.626 14.6455Z" fill="black"/>
<path d="M202.519 0H197.549L196.764 3.64208H201.734H261.213L262 0H202.519Z" fill="black"/>
<path d="M187.745 46.1673L187.001 49.8072H191.93H251.411L252.155 46.1673H192.674H187.745Z" fill="black"/>
</svg>
