<svg width="22" height="22" viewBox="0 0 22 22" fill="none" xmlns="http://www.w3.org/2000/svg">
<path d="M17.875 4.8125H15.4928L14.3215 3.05594C14.2587 2.96188 14.1737 2.88475 14.0741 2.83139C13.9744 2.77802 13.8631 2.75007 13.75 2.75H8.25C8.13693 2.75007 8.02562 2.77802 7.92594 2.83139C7.82625 2.88475 7.74127 2.96188 7.67852 3.05594L6.50633 4.8125H4.125C3.57799 4.8125 3.05339 5.0298 2.66659 5.41659C2.2798 5.80339 2.0625 6.32799 2.0625 6.875V16.5C2.0625 17.047 2.2798 17.5716 2.66659 17.9584C3.05339 18.3452 3.57799 18.5625 4.125 18.5625H17.875C18.422 18.5625 18.9466 18.3452 19.3334 17.9584C19.7202 17.5716 19.9375 17.047 19.9375 16.5V6.875C19.9375 6.32799 19.7202 5.80339 19.3334 5.41659C18.9466 5.0298 18.422 4.8125 17.875 4.8125ZM14.0938 11.3438C14.0938 11.9556 13.9123 12.5538 13.5724 13.0625C13.2324 13.5713 12.7492 13.9678 12.1839 14.202C11.6186 14.4362 10.9966 14.4974 10.3964 14.3781C9.79631 14.2587 9.24506 13.964 8.81239 13.5314C8.37972 13.0987 8.08507 12.5474 7.9657 11.9473C7.84632 11.3472 7.90759 10.7251 8.14175 10.1598C8.37591 9.59451 8.77244 9.11134 9.2812 8.77139C9.78997 8.43145 10.3881 8.25 11 8.25C11.8205 8.25 12.6074 8.57595 13.1876 9.15614C13.7678 9.73633 14.0938 10.5232 14.0938 11.3438Z" fill="white"/>
</svg>
