<svg width="50" height="10" viewBox="0 0 50 10" fill="none" xmlns="http://www.w3.org/2000/svg">
<path d="M23.0102 3.22784L20.0123 2.80963L18.6722 0.201744C18.6356 0.130342 18.5754 0.0725399 18.501 0.0374054C18.3145 -0.0509975 18.0878 0.0226716 17.9945 0.201744L16.6544 2.80963L13.6566 3.22784C13.574 3.23918 13.4984 3.27658 13.4406 3.33325C13.3706 3.40225 13.3321 3.49509 13.3334 3.59136C13.3347 3.68763 13.3758 3.77946 13.4476 3.84666L15.6166 5.87653L15.1042 8.74283C15.0921 8.8095 15.0998 8.87808 15.1264 8.94077C15.1529 9.00347 15.1972 9.05778 15.2542 9.09754C15.3112 9.13731 15.3787 9.16094 15.449 9.16575C15.5194 9.17056 15.5897 9.15637 15.652 9.12477L18.3334 7.77153L21.0148 9.12477C21.088 9.16217 21.173 9.17464 21.2544 9.16104C21.4599 9.12704 21.598 8.94003 21.5626 8.74283L21.0502 5.87653L23.2191 3.84666C23.2782 3.79113 23.3171 3.71859 23.3289 3.63926C23.3608 3.44092 23.2168 3.25731 23.0102 3.22784Z" fill="#FFA800"/>
<path d="M9.67679 3.22784L6.67898 2.80963L5.33889 0.201744C5.30228 0.130342 5.24207 0.0725399 5.16768 0.0374054C4.98113 -0.0509975 4.75444 0.0226716 4.66116 0.201744L3.32106 2.80963L0.323258 3.22784C0.240609 3.23918 0.165044 3.27658 0.107189 3.33325C0.0372466 3.40225 -0.00129512 3.49509 3.3232e-05 3.59136C0.00136159 3.68763 0.0424513 3.77946 0.114274 3.84666L2.28323 5.87653L1.7708 8.74283C1.75878 8.8095 1.76647 8.87808 1.79299 8.94077C1.81951 9.00347 1.86379 9.05778 1.92083 9.09754C1.97787 9.13731 2.04537 9.16094 2.11568 9.16575C2.186 9.17056 2.25631 9.15637 2.31865 9.12477L5.00002 7.77153L7.6814 9.12477C7.7546 9.16217 7.83962 9.17464 7.92108 9.16104C8.12653 9.12704 8.26467 8.94003 8.22925 8.74283L7.71682 5.87653L9.88577 3.84666C9.94481 3.79113 9.98377 3.71859 9.99558 3.63926C10.0275 3.44092 9.88341 3.25731 9.67679 3.22784Z" fill="#FFA800"/>
<path d="M36.3435 3.22784L33.3456 2.80963L32.0055 0.201744C31.9689 0.130342 31.9087 0.0725399 31.8343 0.0374054C31.6478 -0.0509975 31.4211 0.0226716 31.3278 0.201744L29.9877 2.80963L26.9899 3.22784C26.9073 3.23918 26.8317 3.27658 26.7739 3.33325C26.7039 3.40225 26.6654 3.49509 26.6667 3.59136C26.668 3.68763 26.7091 3.77946 26.7809 3.84666L28.9499 5.87653L28.4375 8.74283C28.4254 8.8095 28.4331 8.87808 28.4597 8.94077C28.4862 9.00347 28.5305 9.05778 28.5875 9.09754C28.6445 9.13731 28.712 9.16094 28.7823 9.16575C28.8527 9.17056 28.923 9.15637 28.9853 9.12477L31.6667 7.77153L34.3481 9.12477C34.4213 9.16217 34.5063 9.17464 34.5877 9.16104C34.7932 9.12704 34.9313 8.94003 34.8959 8.74283L34.3835 5.87653L36.5524 3.84666C36.6115 3.79113 36.6504 3.71859 36.6622 3.63926C36.6941 3.44092 36.5501 3.25731 36.3435 3.22784Z" fill="#FFA800"/>
<path d="M49.6768 3.22784L46.679 2.80963L45.3389 0.201744C45.3023 0.130342 45.2421 0.0725399 45.1677 0.0374054C44.9812 -0.0509975 44.7545 0.0226716 44.6612 0.201744L43.3211 2.80963L40.3233 3.22784C40.2406 3.23918 40.1651 3.27658 40.1072 3.33325C40.0373 3.40225 39.9987 3.49509 40.0001 3.59136C40.0014 3.68763 40.0425 3.77946 40.1143 3.84666L42.2833 5.87653L41.7708 8.74283C41.7588 8.8095 41.7665 8.87808 41.793 8.94077C41.8195 9.00347 41.8638 9.05778 41.9209 9.09754C41.9779 9.13731 42.0454 9.16094 42.1157 9.16575C42.186 9.17056 42.2563 9.15637 42.3187 9.12477L45 7.77153L47.6814 9.12477C47.7546 9.16217 47.8396 9.17464 47.9211 9.16104C48.1266 9.12704 48.2647 8.94003 48.2293 8.74283L47.7168 5.87653L49.8858 3.84666C49.9448 3.79113 49.9838 3.71859 49.9956 3.63926C50.0275 3.44092 49.8834 3.25731 49.6768 3.22784Z" fill="#FFA800"/>
</svg>
