<svg width="21" height="21" viewBox="0 0 21 21" fill="none" xmlns="http://www.w3.org/2000/svg">
<g clip-path="url(#clip0_0_144)">
<path d="M1.37043 0.498413L0.027832 0.901613L4.37903 15.4H20.9998V6.30001C20.9998 5.37176 20.6311 4.48152 19.9747 3.82514C19.3183 3.16876 18.4281 2.80001 17.4998 2.80001H2.06063L1.37043 0.498413Z" fill="#FFA500"/>
<path fill-rule="evenodd" clip-rule="evenodd" d="M7.7001 16.8C7.14314 16.8 6.609 17.0212 6.21517 17.4151C5.82135 17.8089 5.6001 18.343 5.6001 18.9C5.6001 19.4569 5.82135 19.9911 6.21517 20.3849C6.609 20.7787 7.14314 21 7.7001 21C8.25705 21 8.7912 20.7787 9.18502 20.3849C9.57885 19.9911 9.8001 19.4569 9.8001 18.9C9.8001 18.343 9.57885 17.8089 9.18502 17.4151C8.7912 17.0212 8.25705 16.8 7.7001 16.8ZM7.0001 18.9C7.0001 18.7143 7.07385 18.5363 7.20512 18.405C7.3364 18.2737 7.51445 18.2 7.7001 18.2C7.88575 18.2 8.0638 18.2737 8.19507 18.405C8.32635 18.5363 8.4001 18.7143 8.4001 18.9C8.4001 19.0856 8.32635 19.2637 8.19507 19.395C8.0638 19.5262 7.88575 19.6 7.7001 19.6C7.51445 19.6 7.3364 19.5262 7.20512 19.395C7.07385 19.2637 7.0001 19.0856 7.0001 18.9ZM17.5001 16.8C16.9431 16.8 16.409 17.0212 16.0152 17.4151C15.6213 17.8089 15.4001 18.343 15.4001 18.9C15.4001 19.4569 15.6213 19.9911 16.0152 20.3849C16.409 20.7787 16.9431 21 17.5001 21C18.0571 21 18.5912 20.7787 18.985 20.3849C19.3788 19.9911 19.6001 19.4569 19.6001 18.9C19.6001 18.343 19.3788 17.8089 18.985 17.4151C18.5912 17.0212 18.0571 16.8 17.5001 16.8ZM16.8001 18.9C16.8001 18.7143 16.8738 18.5363 17.0051 18.405C17.1364 18.2737 17.3144 18.2 17.5001 18.2C17.6857 18.2 17.8638 18.2737 17.9951 18.405C18.1263 18.5363 18.2001 18.7143 18.2001 18.9C18.2001 19.0856 18.1263 19.2637 17.9951 19.395C17.8638 19.5262 17.6857 19.6 17.5001 19.6C17.3144 19.6 17.1364 19.5262 17.0051 19.395C16.8738 19.2637 16.8001 19.0856 16.8001 18.9Z" fill="#FFA500"/>
</g>
<defs>
<clipPath id="clip0_0_144">
<rect width="21" height="21" fill="white"/>
</clipPath>
</defs>
</svg>
