<svg width="40" height="40" viewBox="0 0 40 40" fill="none" xmlns="http://www.w3.org/2000/svg">
<g clip-path="url(#clip0_0_111)">
<path d="M10.8707 9.99841L9.52808 10.4016L13.8793 24.9H30.5001V15.8C30.5001 14.8718 30.1313 13.9815 29.475 13.3251C28.8186 12.6688 27.9283 12.3 27.0001 12.3H11.5609L10.8707 9.99841Z" fill="black" fill-opacity="0.3"/>
<path fill-rule="evenodd" clip-rule="evenodd" d="M17.2001 26.3C16.6431 26.3 16.109 26.5212 15.7152 26.9151C15.3213 27.3089 15.1001 27.843 15.1001 28.4C15.1001 28.9569 15.3213 29.4911 15.7152 29.8849C16.109 30.2787 16.6431 30.5 17.2001 30.5C17.7571 30.5 18.2912 30.2787 18.685 29.8849C19.0788 29.4911 19.3001 28.9569 19.3001 28.4C19.3001 27.843 19.0788 27.3089 18.685 26.9151C18.2912 26.5212 17.7571 26.3 17.2001 26.3ZM16.5001 28.4C16.5001 28.2143 16.5738 28.0363 16.7051 27.905C16.8364 27.7737 17.0144 27.7 17.2001 27.7C17.3857 27.7 17.5638 27.7737 17.6951 27.905C17.8263 28.0363 17.9001 28.2143 17.9001 28.4C17.9001 28.5856 17.8263 28.7637 17.6951 28.895C17.5638 29.0262 17.3857 29.1 17.2001 29.1C17.0144 29.1 16.8364 29.0262 16.7051 28.895C16.5738 28.7637 16.5001 28.5856 16.5001 28.4ZM27.0001 26.3C26.4431 26.3 25.909 26.5212 25.5152 26.9151C25.1213 27.3089 24.9001 27.843 24.9001 28.4C24.9001 28.9569 25.1213 29.4911 25.5152 29.8849C25.909 30.2787 26.4431 30.5 27.0001 30.5C27.5571 30.5 28.0912 30.2787 28.485 29.8849C28.8788 29.4911 29.1001 28.9569 29.1001 28.4C29.1001 27.843 28.8788 27.3089 28.485 26.9151C28.0912 26.5212 27.5571 26.3 27.0001 26.3ZM26.3001 28.4C26.3001 28.2143 26.3738 28.0363 26.5051 27.905C26.6364 27.7737 26.8144 27.7 27.0001 27.7C27.1857 27.7 27.3638 27.7737 27.4951 27.905C27.6263 28.0363 27.7001 28.2143 27.7001 28.4C27.7001 28.5856 27.6263 28.7637 27.4951 28.895C27.3638 29.0262 27.1857 29.1 27.0001 29.1C26.8144 29.1 26.6364 29.0262 26.5051 28.895C26.3738 28.7637 26.3001 28.5856 26.3001 28.4Z" fill="black" fill-opacity="0.3"/>
</g>
<defs>
<clipPath id="clip0_0_111">
<rect width="21" height="21" fill="white" transform="translate(9.5 9.5)"/>
</clipPath>
</defs>
</svg>
