<svg width="40" height="40" viewBox="0 0 40 40" fill="none" xmlns="http://www.w3.org/2000/svg">
<path fill-rule="evenodd" clip-rule="evenodd" d="M15 13.75C15 12.4239 15.5268 11.1521 16.4645 10.2145C17.4021 9.27678 18.6739 8.75 20 8.75C21.3261 8.75 22.5979 9.27678 23.5355 10.2145C24.4732 11.1521 25 12.4239 25 13.75C25 15.0761 24.4732 16.3479 23.5355 17.2855C22.5979 18.2232 21.3261 18.75 20 18.75C18.6739 18.75 17.4021 18.2232 16.4645 17.2855C15.5268 16.3479 15 15.0761 15 13.75ZM15 21.25C13.3424 21.25 11.7527 21.9085 10.5806 23.0806C9.40848 24.2527 8.75 25.8424 8.75 27.5C8.75 28.4946 9.14509 29.4484 9.84835 30.1517C10.5516 30.8549 11.5054 31.25 12.5 31.25H27.5C28.4946 31.25 29.4484 30.8549 30.1517 30.1517C30.8549 29.4484 31.25 28.4946 31.25 27.5C31.25 25.8424 30.5915 24.2527 29.4194 23.0806C28.2473 21.9085 26.6576 21.25 25 21.25H15Z" fill="black" fill-opacity="0.2"/>
</svg>
