<svg width="40" height="40" viewBox="0 0 40 40" fill="none" xmlns="http://www.w3.org/2000/svg">
<path fill-rule="evenodd" clip-rule="evenodd" d="M30.9055 15.3175C30.8368 15.3125 30.7605 15.3125 30.6805 15.3125H27.5243C24.9393 15.3125 22.728 17.3475 22.728 20C22.728 22.6525 24.9405 24.6875 27.5243 24.6875H30.6805C30.7605 24.6875 30.8368 24.6875 30.908 24.6825C31.4393 24.6505 31.9408 24.4264 32.3191 24.052C32.6974 23.6776 32.9267 23.1784 32.9643 22.6475C32.9693 22.5725 32.9693 22.4912 32.9693 22.4162V17.5838C32.9693 17.5088 32.9693 17.4275 32.9643 17.3525C32.9267 16.8216 32.6974 16.3224 32.3191 15.948C31.9408 15.5736 31.4393 15.3495 30.908 15.3175H30.9055ZM27.2455 21.25C27.9105 21.25 28.4493 20.69 28.4493 20C28.4493 19.31 27.9105 18.75 27.2455 18.75C26.5793 18.75 26.0405 19.31 26.0405 20C26.0405 20.69 26.5793 21.25 27.2455 21.25Z" fill="black" fill-opacity="0.2"/>
<path fill-rule="evenodd" clip-rule="evenodd" d="M30.678 26.5625C30.7212 26.5608 30.7642 26.5692 30.8036 26.5873C30.8429 26.6053 30.8774 26.6323 30.9043 26.6661C30.9312 26.7 30.9498 26.7397 30.9585 26.7821C30.9671 26.8245 30.9657 26.8683 30.9543 26.91C30.7043 27.8 30.3055 28.56 29.6668 29.1975C28.7305 30.135 27.5443 30.5487 26.0793 30.7463C24.6543 30.9375 22.8355 30.9375 20.538 30.9375H17.898C15.6005 30.9375 13.7805 30.9375 12.3568 30.7463C10.8918 30.5487 9.70552 30.1337 8.76927 29.1987C7.83427 28.2625 7.41927 27.0763 7.22177 25.6112C7.03052 24.1863 7.03052 22.3675 7.03052 20.07V19.93C7.03052 17.6325 7.03052 15.8125 7.22177 14.3875C7.41927 12.9225 7.83427 11.7362 8.76927 10.8C9.70552 9.865 10.8918 9.45 12.3568 9.2525C13.7818 9.0625 15.6005 9.0625 17.898 9.0625H20.538C22.8355 9.0625 24.6555 9.0625 26.0793 9.25375C27.5443 9.45125 28.7305 9.86625 29.6668 10.8012C30.3055 11.4412 30.7043 12.2 30.9543 13.09C30.9657 13.1317 30.9671 13.1755 30.9585 13.2179C30.9498 13.2603 30.9312 13.3 30.9043 13.3339C30.8774 13.3677 30.8429 13.3947 30.8036 13.4127C30.7642 13.4308 30.7212 13.4392 30.678 13.4375H27.523C23.9768 13.4375 20.8518 16.2375 20.8518 20C20.8518 23.7625 23.9768 26.5625 27.523 26.5625H30.678ZM11.718 14.0625C11.4694 14.0625 11.2309 14.1613 11.0551 14.3371C10.8793 14.5129 10.7805 14.7514 10.7805 15C10.7805 15.2486 10.8793 15.4871 11.0551 15.6629C11.2309 15.8387 11.4694 15.9375 11.718 15.9375H16.718C16.9667 15.9375 17.2051 15.8387 17.3809 15.6629C17.5567 15.4871 17.6555 15.2486 17.6555 15C17.6555 14.7514 17.5567 14.5129 17.3809 14.3371C17.2051 14.1613 16.9667 14.0625 16.718 14.0625H11.718Z" fill="black" fill-opacity="0.2"/>
</svg>
